<?xml version="1.0" standalone="no"?>
<!DOCTYPE svg PUBLIC "-//W3C//DTD SVG 20010904//EN"
 "http://www.w3.org/TR/2001/REC-SVG-20010904/DTD/svg10.dtd">
<svg version="1.0" xmlns="http://www.w3.org/2000/svg"
 width="500.000000pt" height="500.000000pt" viewBox="0 0 500.000000 500.000000"
 preserveAspectRatio="xMidYMid meet">
<metadata>
Created by potrace 1.11, written by Peter Selinger 2001-2013
</metadata>
<g transform="translate(0.000000,500.000000) scale(0.100000,-0.100000)"
fill="#000000" stroke="none">
<path d="M0 2500 l0 -2500 2500 0 2500 0 0 2500 0 2500 -2500 0 -2500 0 0
-2500z m2329 905 c85 -20 185 -74 269 -144 l68 -58 62 57 c233 215 602 210
822 -10 58 -58 116 -152 142 -229 22 -65 23 -79 26 -622 l3 -556 55 -7 c121
-14 188 -66 209 -163 l7 -33 -361 0 -361 0 -1 608 c0 443 -3 616 -12 641 -20
58 -56 76 -150 76 -106 0 -154 -23 -259 -123 l-78 -75 0 -463 0 -464 28 0 c50
0 131 -30 168 -62 37 -33 57 -65 68 -110 l6 -28 -360 0 -360 0 0 608 c0 580
-1 609 -20 650 -25 56 -71 76 -155 70 -82 -7 -168 -52 -255 -134 l-70 -66 0
-463 0 -462 58 -7 c114 -13 195 -75 209 -160 l6 -36 -497 0 -498 0 7 33 c21
97 88 149 209 163 l56 7 0 531 0 532 -66 11 c-137 24 -199 92 -199 218 0 121
46 178 170 210 45 11 116 15 302 15 l243 0 0 -50 c0 -27 2 -50 5 -50 2 0 33
20 69 45 149 105 283 135 435 100z"/>
</g>
</svg>
