<?xml version="1.0" encoding="UTF-8" standalone="no"?>
<!-- Created with Inkscape (http://www.inkscape.org/) -->

<svg
   xmlns:dc="http://purl.org/dc/elements/1.1/"
   xmlns:cc="http://creativecommons.org/ns#"
   xmlns:rdf="http://www.w3.org/1999/02/22-rdf-syntax-ns#"
   xmlns:svg="http://www.w3.org/2000/svg"
   xmlns="http://www.w3.org/2000/svg"
   xmlns:sodipodi="http://sodipodi.sourceforge.net/DTD/sodipodi-0.dtd"
   xmlns:inkscape="http://www.inkscape.org/namespaces/inkscape"
   width="140.90572mm"
   height="127.13721mm"
   viewBox="0 0 499.27222 450.48616"
   id="svg2"
   version="1.1"
   inkscape:version="0.91 r13725"
   sodipodi:docname="search.svg"
   inkscape:export-filename="/home/rob/Documents/git-repositories/reference-code/HTML+CSS/blue-ice/mixtapecomp/examples/mixcomp/search.png"
   inkscape:export-xdpi="200"
   inkscape:export-ydpi="200">
  <defs
     id="defs4" />
  <sodipodi:namedview
     id="base"
     pagecolor="#ffffff"
     bordercolor="#666666"
     borderopacity="1.0"
     inkscape:pageopacity="0.0"
     inkscape:pageshadow="2"
     inkscape:zoom="1.4"
     inkscape:cx="347.62031"
     inkscape:cy="188.44705"
     inkscape:document-units="px"
     inkscape:current-layer="layer1"
     showgrid="false"
     inkscape:window-width="1920"
     inkscape:window-height="1056"
     inkscape:window-x="0"
     inkscape:window-y="24"
     inkscape:window-maximized="1"
     fit-margin-top="13"
     fit-margin-left="24"
     fit-margin-right="24"
     fit-margin-bottom="13" />
  <metadata
     id="metadata7">
    <rdf:RDF>
      <cc:Work
         rdf:about="">
        <dc:format>image/svg+xml</dc:format>
        <dc:type
           rdf:resource="http://purl.org/dc/dcmitype/StillImage" />
        <dc:title></dc:title>
      </cc:Work>
    </rdf:RDF>
  </metadata>
  <g
     inkscape:label="Layer 1"
     inkscape:groupmode="layer"
     id="layer1"
     transform="translate(-43.532895,-166.29835)">
    <path
       style="color:#000000;clip-rule:nonzero;display:inline;overflow:visible;visibility:visible;opacity:1;isolation:auto;mix-blend-mode:normal;color-interpolation:sRGB;color-interpolation-filters:linearRGB;solid-color:#000000;solid-opacity:1;fill:#ffffff;fill-opacity:1;fill-rule:nonzero;stroke:#000000;stroke-width:0;stroke-linecap:butt;stroke-linejoin:round;stroke-miterlimit:4;stroke-dasharray:none;stroke-dashoffset:0;stroke-opacity:1;color-rendering:auto;image-rendering:auto;shape-rendering:auto;text-rendering:auto;enable-background:accumulate"
       d="M 260,212.36133 A 131.42857,131.42857 0 0 0 128.57227,343.79102 131.42857,131.42857 0 0 0 260,475.21875 131.42857,131.42857 0 0 0 323.49023,458.83398 l 86.11915,102.77344 c 9.05226,10.80277 25.02578,12.19955 35.8164,3.13281 l 3.23242,-2.71484 c 10.79063,-9.06674 12.19094,-25.06247 3.13868,-35.86523 l -86.7793,-103.5625 A 131.42857,131.42857 0 0 0 391.42773,343.79102 131.42857,131.42857 0 0 0 260,212.36133 Z m 0,48.36719 c 43.49043,2.7e-4 83.06092,39.57206 83.06055,83.0625 -2.8e-4,43.49002 -39.57053,83.06026 -83.06055,83.06054 -43.49002,-2.8e-4 -83.06027,-39.57052 -83.06055,-83.06054 -3.7e-4,-43.49044 39.57012,-83.06223 83.06055,-83.0625 z"
       id="path4136"
       inkscape:connector-curvature="0" />
  </g>
</svg>
