<?xml version="1.0" encoding="UTF-8" standalone="no"?>
<!-- Created with Inkscape (http://www.inkscape.org/) -->

<svg
   xmlns:dc="http://purl.org/dc/elements/1.1/"
   xmlns:cc="http://creativecommons.org/ns#"
   xmlns:rdf="http://www.w3.org/1999/02/22-rdf-syntax-ns#"
   xmlns:svg="http://www.w3.org/2000/svg"
   xmlns="http://www.w3.org/2000/svg"
   xmlns:sodipodi="http://sodipodi.sourceforge.net/DTD/sodipodi-0.dtd"
   xmlns:inkscape="http://www.inkscape.org/namespaces/inkscape"
   width="140.90572mm"
   height="127.13721mm"
   viewBox="0 0 499.27222 450.48616"
   id="svg2"
   version="1.1"
   inkscape:version="0.91 r13725"
   sodipodi:docname="search.svg"
   inkscape:export-filename="/home/rob/Documents/git-repositories/reference-code/HTML+CSS/blue-ice/mixtapecomp/examples/mixcomp/search.png"
   inkscape:export-xdpi="200"
   inkscape:export-ydpi="200">
  <defs
     id="defs4" />
  <sodipodi:namedview
     id="base"
     pagecolor="#ffffff"
     bordercolor="#666666"
     borderopacity="1.0"
     inkscape:pageopacity="0.0"
     inkscape:pageshadow="2"
     inkscape:zoom="1.4"
     inkscape:cx="224.40602"
     inkscape:cy="188.44705"
     inkscape:document-units="px"
     inkscape:current-layer="layer1"
     showgrid="false"
     inkscape:window-width="1920"
     inkscape:window-height="1056"
     inkscape:window-x="0"
     inkscape:window-y="24"
     inkscape:window-maximized="1"
     fit-margin-top="13"
     fit-margin-left="24"
     fit-margin-right="24"
     fit-margin-bottom="13" />
  <metadata
     id="metadata7">
    <rdf:RDF>
      <cc:Work
         rdf:about="">
        <dc:format>image/svg+xml</dc:format>
        <dc:type
           rdf:resource="http://purl.org/dc/dcmitype/StillImage" />
        <dc:title />
      </cc:Work>
    </rdf:RDF>
  </metadata>
  <g
     inkscape:label="Layer 1"
     inkscape:groupmode="layer"
     id="layer1"
     transform="translate(-43.532895,-166.29835)">
    <path
       style="color:#000000;clip-rule:nonzero;display:inline;overflow:visible;visibility:visible;opacity:1;isolation:auto;mix-blend-mode:normal;color-interpolation:sRGB;color-interpolation-filters:linearRGB;solid-color:#000000;solid-opacity:1;fill:#ffffff;fill-opacity:1;fill-rule:nonzero;stroke:#000000;stroke-width:0;stroke-linecap:butt;stroke-linejoin:round;stroke-miterlimit:4;stroke-dasharray:none;stroke-dashoffset:0;stroke-opacity:1;color-rendering:auto;image-rendering:auto;shape-rendering:auto;text-rendering:auto;enable-background:accumulate"
       d="M 252.06648,169.50419 A 162.86428,162.86428 0 0 0 89.20324,332.36985 162.86428,162.86428 0 0 0 252.06648,495.23309 162.86428,162.86428 0 0 0 330.7426,474.92933 l 106.71754,127.35528 c 11.21742,13.38663 31.01156,15.1175 44.38313,3.88213 l 4.00557,-3.36418 c 13.37158,-11.23537 15.10683,-31.05703 3.8894,-44.44365 L 382.20266,430.02584 A 162.86428,162.86428 0 0 0 414.92972,332.36985 162.86428,162.86428 0 0 0 252.06648,169.50419 Z m 0,59.93588 c 53.89268,3.4e-4 102.92782,49.03709 102.92736,102.92978 -3.4e-4,53.89217 -49.03519,102.92701 -102.92736,102.92736 -53.89217,-3.5e-4 -102.92702,-49.03519 -102.92737,-102.92736 -4.6e-4,-53.89269 49.03469,-102.92944 102.92737,-102.92978 z"
       id="path4136"
       inkscape:connector-curvature="0" />
  </g>
</svg>
